<?xml version="1.0" encoding="utf-8"?>
<!-- Generator: Adobe Illustrator 21.0.2, SVG Export Plug-In . SVG Version: 6.00 Build 0)  -->
<svg version="1.1" id="Calque_1" xmlns="http://www.w3.org/2000/svg" xmlns:xlink="http://www.w3.org/1999/xlink" x="0px" y="0px"
	 viewBox="0 0 334.9 50.9" xml:space="preserve">
<style type="text/css">
	.st0{fill:#E5D174;}
</style>
<path class="st0" d="M326.7,3.2c-0.3-0.2-0.6-0.3-0.9-0.5c-0.9-0.6-1.9-1.1-3-1.3c-11.6-4.2-25.5,1.4-36.6,7.5
	c-13.7,3.9-26.9,7-40.4-0.3c-0.7-0.4-1.2,0.6-0.6,1c10.7,7.8,24.5,5.9,36.6,1.8c-1.1,0.7-2.2,1.4-3.3,2c-0.7,0.5-1.5,0.9-2.2,1.4
	c-6.6-1.7-11.8,4.9-16.9,8c-4.4,2.7-9.2,4.7-14.2,5.9c-2.5,0.6-5.1,1.2-7.6,1.2c-2.5,0.2-4.8-0.3-6.9-1.5c-5.3-8.2-4.9-10.2,1.2-6
	c-0.8,0.1-0.5,1.2,0.2,1.3c5,0.4,5.3-6.1,0.9-7.5c-5.6-1.8-9.1,5.4-6.9,9.8c3.7,7.5,14.1,5.9,20.6,4.1c4.8-1.3,9.3-3.4,13.5-6
	c4.8-3.1,9.2-8.8,15.3-8.7c-12.5,8-25.1,17.4-39.4,21.2c-9.6-0.7-17.5-5-24.3-12c-0.5-0.5-1.4,0.2-1,0.8c5,7.5,13.5,11.6,22.3,11.9
	c-3.3,0.7-6.7,1-10.1,1c-10.9-0.1-24.1-5.2-27.2-16.8c-1.6-5.9,0-12.4,5.2-16c2.9-2,6.1-2.8,9.5-1.7c2.3,0.8,4.2,2.2,5.5,4.2
	c2,2.4,1.4,3.9-1.8,4.7c0.2-0.3,0.2-0.7-0.2-1c-3.5-2.5-8.2,0.4-6.8,4.8c1.5,4.9,7.9,4.5,10.6,0.9c3.8-5.2,0-12.2-5.1-14.8
	c-5.6-2.8-12.2-0.7-16.1,4c-4.7,5.8-4.6,11.9-2,17.4c-4.1-0.9-7.7-2.2-11.1-4.9c-1.7-1.3-3.3-2.8-4.7-4.4c-0.8-0.9-1.6-2-2.2-3.1
	c-0.6-0.9-1-1.8-1.1-2.9c-1.3-2.9,0.4-4.6,5-5.2c0.6,0.3,1.3-0.5,0.8-1c-2.1-1.9-5-1.7-6.8,0.7c-1.9,2.6-1.1,6,0.3,8.6
	c0.7,1.3,1.7,2.7,2.7,3.9c-3.1-0.9-6.5-0.2-8.8,2.3c-0.6,0.7-1.1,1.6-1.3,2.6c-0.2-0.9-0.7-1.8-1.3-2.5c-2.2-2.6-5.7-3.3-8.8-2.4
	c1-1.3,2-2.6,2.7-3.9c1.4-2.6,2.2-6,0.3-8.6c-1.8-2.4-4.7-2.6-6.8-0.7c-0.5,0.5,0.2,1.3,0.8,1c1.8,1.2,3.6,2.3,5.4,3.5
	c-0.1,1.4-0.5,2.7-1.2,3.9c-0.5,1-1.2,1.9-1.8,2.7c-1.6,2-3.3,3.8-5.4,5.4c-3.3,2.5-6.8,3.9-10.7,4.8c1.8-3.9,2-8.5,0-13.4
	c-2.4-5.8-8.6-10.1-14.9-9c-5.7,1-10.9,6.2-10,12.3c0.7,5.1,7.6,9.3,11.2,4.1c3.1-4.3-1.9-9.3-6.1-6.2c-0.4,0.3-0.4,0.7-0.2,1
	C117.6,12,117,10.4,119,8c1.4-2,3.2-3.4,5.5-4.2c2.8-0.9,5.8-0.5,8.4,0.8c5.7,3.1,7.9,9.8,6.6,15.9C137,32.3,124,37.8,113.1,38.2
	c-3.9,0.2-7.7-0.2-11.3-0.9c8.8-0.3,17.4-4.4,22.5-11.9c0.4-0.6-0.5-1.2-1-0.7c-6.8,7-14.7,11.4-24.3,12
	C84.7,32.9,72,23.5,59.7,15.5c5.8-0.1,9.9,5.1,14.5,8.2c4.1,2.7,8.6,4.9,13.4,6.3c6.7,2,17.7,4,21.5-3.8c2.1-4.3-0.8-10.8-6.2-9.9
	c-4.9,0.8-5.3,8,0.2,7.6c0.7-0.1,0.9-1.1,0.2-1.3c6-4.2,6.4-2.2,1.2,6c-2.1,1.2-4.4,1.7-6.9,1.5c-2.5,0-5.2-0.6-7.6-1.2
	c-5-1.2-9.8-3.2-14.2-5.9c-5.1-3.2-10.3-9.8-16.9-8c-0.7-0.5-1.5-0.9-2.2-1.4c-1-0.7-2.1-1.3-3.3-2c12.1,4,25.9,5.9,36.6-1.8
	c0.6-0.4,0.1-1.4-0.6-1C75.8,16,62.6,12.8,48.9,9c-11-6.1-24.7-11.6-36.3-7.6c-1.2,0.2-2.3,0.7-3.3,1.4c0,0,0,0,0,0
	c-5.2,2.7-9.4,8-9.2,14c0.2,5.4,3.5,10.3,8.9,11.5c0.9,0.2,1.2-1,0.4-1.4C1.2,23.8-0.4,14,5.5,7.8c2.7-2.8,6.2-4.4,9.8-5.2
	c3.1,0.5,6.2,2.3,8.6,4.3c1.9,1.6,3.4,3.5,3.9,6c0.4,1.8,0.1,4-1.2,5.4c-0.5,0.4-0.9,0.7-1.4,1.1c-2.9,1.5-3.5,0.5-2-3
	c0.2,0.5,1.2,0.3,1.1-0.3c-0.4-4.2-6-3.5-6.5,0.4c-0.6,5.4,6.6,6.3,9.7,3.4c6.4-5.8-0.5-14.8-8.2-17.7c0.2,0,0.3,0,0.5,0
	C27.6,2.8,34.9,5,41,10.3c2.7,2.3,5.1,5.1,6.7,8.3c1.6,3.1,2.9,7,2,10.5c-0.4,0.9-0.7,1.8-1.1,2.6c-1.6,3.3-3.7,3.8-6.2,1.7
	c0,0,0,0,0.1,0c3-3.3-1.8-7.3-4.8-4c-1.7,1.9-1,4.7,0.8,6.3c2.7,2.3,6.8,1.3,9.3-0.7c7.4-6.2,2.9-16.7-2.3-22.7
	c-2.4-2.7-5.2-5-8.3-6.7c6.4,2.4,12.5,5.8,18.3,9.4c8.6,9.8,9.4,21.8,1.9,33.1c-0.3,0.5,0.4,1,0.8,0.6c6.5-7.2,7.5-17.8,3.8-26.2
	c8,9.5,19,16.8,30.1,21.8c5.6,2.5,28.9,13.2,29.6,0.7c0.1-1-1.5-1-1.6,0c-0.2,1.7-8.8,3.7-10.6,3.5c-1.2-0.1-2.5-0.6-3.6-0.9
	c-2.4-0.6-4.8-1.4-7.1-2.2c-5.5-2-10.8-4.5-15.9-7.5c-9.2-5.5-16.6-12.7-23.9-20.4c-0.1-0.2-0.3-0.4-0.4-0.5
	c16.9,10.9,34.6,24.5,55.8,23.1c9.6-0.6,21.6-6.4,26.1-15.3c5.7,0.1,11.4-3,15.6-7.2c1.7-0.7,3.4-1.1,5.3-0.7c2.4,0.6,4.6,2.5,4.8,5
	c0.2,2.5-1.5,4.8-4.1,4.6c-1.2-0.1-2.4-0.7-2.8-2c-0.6-2,1.9-3,2.7-1c0.2,0.6,1.2,0.4,1.3-0.2c0.7-3.4-4.5-4-5.7-1.1
	c-1.7,4.1,3.1,7,6.6,5.9c1.9-0.6,3.1-2.2,3.5-3.9c0.5,1.7,1.6,3.3,3.5,3.9c3.4,1.2,8.1-1.6,6.7-5.6c-1.1-3.1-6.5-2.7-5.8,0.8
	c0.1,0.6,1.1,0.8,1.3,0.2c0.8-2,3.3-1,2.7,1c-0.3,1.1-1.3,1.7-2.3,2c-2.8,0.7-4.8-1.9-4.6-4.6c0.2-2.5,2.2-4.3,4.5-5
	c2-0.6,3.9-0.2,5.7,0.6c4.3,4.3,10.1,7.4,15.9,7.1c3.7,6.8,11.4,12.3,18.5,14.1c20.5,5.3,39.9-6.6,56.3-17.5c2.3-1.5,4.5-3,6.8-4.5
	c-0.1,0.2-0.3,0.4-0.4,0.5c-7.3,7.7-14.7,14.9-23.9,20.4c-4.8,2.9-9.8,5.3-15,7.2c-3.8,1.4-21.3,8-22.3-0.1c-0.1-1-1.6-1.1-1.6,0
	c0.7,12.5,24,1.8,29.6-0.7c11.1-5,22.1-12.3,30.1-21.8c-3.8,8.5-2.7,19,3.8,26.2c0.4,0.4,1.1-0.1,0.8-0.6
	c-7.4-11.3-6.7-23.3,1.9-33.1c5.8-3.6,11.7-6.9,18-9.3c-3.3,1.9-6.3,4.4-8.7,7.3c-4.9,5.9-8.9,16.2-1.6,22.1
	c3.9,3.1,14.4,1.1,10.3-5.1c-2.6-4-8.4-0.2-5.1,3.5c0,0,0.1,0.1,0.1,0.1c-2,1.9-3.6,1.8-4.9-0.3c-1.4-1-2.2-2.4-2.6-4.1
	c-0.8-3,0-6,1.2-8.7c1.6-3.9,4.3-7.3,7.5-10c6.1-5.3,13.4-7.5,21.3-8.2c0.2,0,0.3,0,0.5,0c-7.8,2.9-14.6,11.9-8.2,17.7
	c3.1,2.8,9.6,2.1,9.7-2.9c0.1-4.2-6.1-5.4-6.5-0.9c-0.1,0.6,0.9,0.8,1.1,0.3c1.5,3.1,1.2,4.2-0.8,3.3c-0.9,0-1.6-0.4-2.1-1.1
	c-1.4-1.2-1.9-2.8-1.8-4.6c0.2-3.2,2.4-5.7,4.8-7.5c2.3-1.7,5-3.2,7.8-3.7c2.6,0.5,5.1,1.5,7.3,3.1c7.9,5.5,8.6,17.4-1.2,21.2
	c-0.8,0.3-0.5,1.5,0.4,1.4C339.5,25.5,335.9,8.6,326.7,3.2z"/>
</svg>
