<?xml version="1.0" encoding="utf-8"?>
<!-- Generator: Adobe Illustrator 21.0.2, SVG Export Plug-In . SVG Version: 6.00 Build 0)  -->
<svg version="1.1" xmlns="http://www.w3.org/2000/svg" xmlns:xlink="http://www.w3.org/1999/xlink" x="0px" y="0px"
	 viewBox="0 0 154 106" width="154px" height="106px" xml:space="preserve">
<g>
	<path fill="#E5D375" d="M17.4,72.5c-2.7,6-0.6,8.5,8.7,8.5v2.3H0V81c9.4,0,9.9-1.9,13.4-9.7l24.5-56.7h1.4L64,71.3
		c3.5,7.8,4,9.7,13.3,9.7v2.3H46.4V81c9.2,0,11.4-2.3,8.7-8.5l-5.3-12.4h-27L17.4,72.5z M36.1,29.1L24.5,56h23.3L36.1,29.1z"/>
	<path fill="#E5D375" d="M124.8,57.9v-2.2H154v2.2c-9.2,0-10.6,1.9-10.6,13v8.5c-12.4,0-17.4,5.8-29,5.8c-18.8,0-34.2-15.9-34.2-35.3
		c0-19.4,15.4-35.3,34.2-35.3c7.8,0,15,3.5,20.7,9.5c1.4-1.1,3.2-3.6,3.8-6.4h2.2v24.5H139c-3-14.5-11.7-23.3-24.2-23.3
		c-17.8,0-24.3,17.2-24.3,31c0,13.8,5.8,30.5,26.4,30.5c9.7,0,18.4-5.2,18.4-15.3C135.3,60.3,132.5,57.9,124.8,57.9z"/>
</g>
<g>
	<path fill="#000000" d="M134.9,87.2c-0.1-0.1-0.2-0.2-0.3-0.3c-5.1,6.9-12.9,12.1-22.1,14.8c-17.4,5.2-29-5-35.2-15.2c-1.6-2.7-4-6-4.6-9.4
		c6.1-1.7,17.8-10.8,20-16.1c0.2-0.4,0.1-0.4-0.3-0.7c-1.3,1.6-2.6,3.3-3.9,4.9c-4,5-9.8,8.4-16,11.2c-3.3-12.2-7.7-29.4-4.5-45.6
		c11.4-1.7,21.7-7.5,27.2-15.3c5.2-7.5,1.8-15.2-8.3-15.1c-2.8,1.1-5.2,0.7-7.7,2.2c-7.9,4.6-12.5,12-15.5,21.5
		c-0.7,2.1-1.6,4.5-1.7,7.1c-4.6,1.6-8.9,3.3-12.8,5.6l0.6,1.4c2.1-1.7,4.3-3.1,6.8-4.2c1.7-0.7,3.4-1.3,5.1-2
		c-0.1,1.3-0.2,2.5-0.3,3.8c-0.6,3.4-0.8,9.2-0.2,12.8c0.3,3.4,0.7,6.8,1,10.1c1.4,6.9,2.8,13.2,5.3,18.9c0,0,0,0.1,0,0.1
		c-12,2.6-21.7-2.5-25.1-10.8c-0.9-2.1-1-4.2-1.4-6.9h-0.5h-5.8h-0.5c0.5,8.6,7.2,14.9,14,17.6c3,1.2,5.9,1.1,9.7,1.7
		c3.1,0.5,7.4,0.1,9.9-0.7c3.2,10.2,13.1,21,22.8,25c14.3,5.8,30.1-3.5,38-9.5c2.4-1.8,5.2-4.1,6.8-6.8
		C135.1,87.3,135,87.3,134.9,87.2z M70,20c2.3-7.5,5.4-14.8,12.2-17.7c1.3-0.6,2.9-0.5,4.4-1C97,1.1,99.1,8.6,94.1,15.7
		c-5.8,8.1-15.1,11.1-26,14.3C67.4,28,69.5,21.8,70,20z"/>
	<path d="M40,56h0.5c0.1-2.8,0.8-5.5,1.6-7.5c0.4-0.9,0.8-1.9,1.3-2.7l-1.5-3.5c-2.7,2.6-4.8,5.7-6.3,9.5c-0.6,1.5-1,2.9-1.2,4.3
		h0.5H40z"/>
</g>
</svg>
