<?xml version="1.0" encoding="utf-8"?>
<!-- Generator: Adobe Illustrator 21.0.2, SVG Export Plug-In . SVG Version: 6.00 Build 0)  -->
<svg version="1.1" xmlns="http://www.w3.org/2000/svg" xmlns:xlink="http://www.w3.org/1999/xlink" x="0px" y="0px"
	 viewBox="0 0 58 43" width="58px" height="43px" xml:space="preserve">
<path fill="#4D4D4E" d="M57.2,5.2l-4.6-4.6c-0.9-0.9-2.2-0.9-3.1,0L21.6,28.4L8.4,15.1c-0.9-0.9-2.2-0.9-3.1,0l-4.7,4.6
	c-0.9,0.9-0.9,2.2,0,3.1l14.7,14.8c0,0,0,0.1,0,0.1l3.2,3.2l0.7,0.7v0l0.7,0.7c0.9,0.9,2.2,0.9,3.1,0L57.2,8.3
	C58.1,7.4,58.1,6.1,57.2,5.2z"/>
</svg>
